<?xml version="1.0" encoding="UTF-8"?>
<!DOCTYPE svg PUBLIC "-//W3C//DTD SVG 1.1//EN" "http://www.w3.org/Graphics/SVG/1.1/DTD/svg11.dtd">
<!-- Creator: CorelDRAW X6 -->
<svg xmlns="http://www.w3.org/2000/svg" xml:space="preserve" width="2459px" height="849px" version="1.1" style="shape-rendering:geometricPrecision; text-rendering:geometricPrecision; image-rendering:optimizeQuality; fill-rule:evenodd; clip-rule:evenodd"
viewBox="0 0 2457 848"
 xmlns:xlink="http://www.w3.org/1999/xlink">
 <defs>
  <style type="text/css">
   <![CDATA[
    .fil1 {fill:#242217;fill-rule:nonzero}
    .fil0 {fill:#EBB512;fill-rule:nonzero}
   ]]>
  </style>
 </defs>
 <g id="Layer_x0020_1">
  <metadata id="CorelCorpID_0Corel-Layer"/>
  <g id="_776510464">
   <path class="fil0" d="M1955 426c0,58 -24,110 -61,148 -38,38 -90,61 -148,61 -58,0 -110,-23 -148,-61 -38,-38 -61,-90 -61,-148 0,-58 23,-110 61,-148 38,-38 90,-61 148,-61l0 0c4,0 8,3 8,8 0,4 -3,8 -8,8l0 0c-54,0 -102,22 -137,57 -35,35 -57,84 -57,137 0,54 22,102 57,137 35,35 84,57 137,57 54,0 102,-22 137,-57 35,-35 57,-84 57,-137l0 0c0,-4 3,-8 8,-8 4,0 8,3 8,8l0 0z"/>
   <path class="fil0" d="M1832 234c24,11 45,26 63,44 18,18 33,40 43,64 1,1 1,2 1,4 0,4 -3,8 -8,8 -3,0 -6,-2 -7,-5 -10,-22 -23,-43 -40,-60 -17,-17 -37,-31 -59,-41 -3,-1 -5,-4 -5,-7 0,-4 3,-8 8,-8 1,0 3,0 4,1z"/>
   <path class="fil0" d="M1746 51c103,0 197,42 264,110 68,68 110,161 110,264 0,103 -42,197 -110,264 -68,68 -161,110 -264,110 -103,0 -197,-42 -264,-110 -68,-68 -110,-161 -110,-264 0,-103 42,-197 110,-264 68,-68 161,-110 264,-110zm254 120c-65,-65 -155,-105 -254,-105 -99,0 -189,40 -254,105 -65,65 -105,155 -105,254 0,99 40,189 105,254 65,65 155,105 254,105 99,0 189,-40 254,-105 65,-65 105,-155 105,-254 0,-99 -40,-189 -105,-254z"/>
   <path class="fil0" d="M1351 258c21,-51 52,-96 90,-134 38,-38 83,-69 133,-91l0 0c1,0 2,-1 3,-1 4,0 7,3 7,7 0,3 -2,6 -4,7l0 0c-49,21 -92,51 -129,88 -37,37 -66,81 -87,130l0 0c-1,3 -4,4 -7,4 -4,0 -7,-3 -7,-7 0,-1 0,-2 1,-3l0 0z"/>
   <path class="fil0" d="M2139 596c-22,50 -53,95 -91,133 -38,38 -84,69 -134,90l0 0c-1,0 -2,1 -3,1 -4,0 -7,-3 -7,-7 0,-3 2,-6 5,-7l0 0 0 0c49,-21 92,-50 129,-87 37,-37 67,-80 88,-128 1,-3 4,-5 7,-5 4,0 7,3 7,7 0,1 0,2 -1,3z"/>
   <path class="fil0" d="M1798 448c-13,7 -27,14 -40,21 -14,7 -29,15 -43,22 0,0 0,0 0,0 -1,1 -2,1 -3,2 -8,4 -11,6 -16,2 0,0 0,0 0,0 -4,-3 -4,-6 -4,-12 0,-2 0,-4 0,-7 0,-14 0,-28 0,-42 0,-15 0,-30 0,-45 0,0 0,0 0,0 0,-1 0,-2 0,-3 0,-9 0,-13 6,-15 0,0 0,0 0,0 4,-1 7,0 12,3 2,1 4,2 7,4 13,7 27,14 40,21 14,7 29,15 43,22 0,0 0,0 0,0 1,1 2,1 3,2 0,0 0,0 0,0 8,4 12,6 11,13 -1,5 -4,6 -10,9 0,0 0,0 0,0 -2,1 -4,2 -7,3zm-47 7c13,-7 27,-14 40,-21 2,-1 -35,-19 -40,-22 -12,-6 -23,-12 -35,-18 -2,-1 -4,-2 -6,-3 -5,-3 -3,2 -3,8 0,11 0,23 0,34 0,14 0,28 0,42 0,0 0,0 0,0 0,2 -1,2 2,1 14,-7 28,-14 42,-22z"/>
  </g>
  <path class="fil1" d="M231 718c0,42 -9,75 -27,97 -18,22 -48,33 -88,33 -41,0 -70,-11 -88,-33 -18,-22 -27,-54 -27,-97l0 -118 47 0 0 118c0,27 5,48 16,63 11,15 28,22 52,22 24,0 42,-7 52,-22 11,-15 16,-36 16,-63l0 -141c0,-21 -1,-38 -4,-52 -2,-13 -6,-24 -12,-33 -5,-9 -13,-16 -21,-22 -9,-6 -19,-12 -32,-19 -18,-9 -34,-18 -49,-26 -15,-8 -27,-18 -37,-29 -10,-12 -17,-27 -22,-47 -5,-19 -8,-45 -8,-78l0 -143c0,-42 9,-74 27,-96 18,-22 48,-32 88,-32 41,0 70,11 88,32 18,22 27,54 27,96l0 119 -47 0 0 -119c0,-27 -5,-48 -16,-62 -11,-14 -28,-21 -52,-21 -24,0 -42,7 -52,21 -11,14 -16,35 -16,62l0 143c0,21 1,38 4,52 2,13 6,24 12,33 5,9 13,16 21,22 9,6 19,12 32,19 18,9 34,18 49,26 15,8 27,18 37,29 10,12 17,27 22,47 5,19 8,45 8,78l0 141z"/>
  <polygon id="1" class="fil1" points="281,12 541,12 541,58 435,58 435,836 387,836 387,58 281,58 "/>
  <path id="2" class="fil1" d="M596 12l47 0 0 707c0,27 5,48 16,63 11,15 29,22 54,22 25,0 43,-7 54,-22 11,-15 16,-36 16,-63l0 -707 47 0 0 707c0,42 -9,75 -28,97 -18,22 -48,33 -90,33 -42,0 -72,-11 -90,-33 -18,-22 -28,-54 -28,-97l0 -707z"/>
  <path id="3" class="fil1" d="M920 12l118 0c42,0 72,12 90,36 18,24 28,59 28,104l0 543c0,46 -9,80 -28,105 -18,24 -48,37 -90,37l-118 0 0 -824zm47 45l0 735 71 0c25,0 43,-8 54,-25 11,-17 16,-41 16,-71l0 -543c0,-31 -5,-54 -16,-71 -11,-16 -29,-25 -54,-25l-71 0z"/>
  <polygon id="4" class="fil1" points="1291,836 1244,836 1244,12 1291,12 "/>
  <path id="5" class="fil1" d="M2457 718c0,42 -9,75 -27,97 -18,22 -48,33 -88,33 -41,0 -70,-11 -88,-33 -18,-22 -27,-54 -27,-97l0 -118 47 0 0 118c0,27 5,48 16,63 11,15 28,22 52,22 24,0 42,-7 52,-22 11,-15 16,-36 16,-63l0 -141c0,-21 -1,-38 -4,-52 -2,-13 -6,-24 -12,-33 -5,-9 -13,-16 -21,-22 -9,-6 -19,-12 -32,-19 -18,-9 -34,-18 -49,-26 -15,-8 -27,-18 -37,-29 -10,-12 -17,-27 -22,-47 -5,-19 -8,-45 -8,-78l0 -143c0,-42 9,-74 27,-96 18,-22 48,-32 88,-32 41,0 70,11 88,32 18,22 27,54 27,96l0 119 -47 0 0 -119c0,-27 -5,-48 -16,-62 -11,-14 -28,-21 -52,-21 -24,0 -42,7 -52,21 -11,14 -16,35 -16,62l0 143c0,21 1,38 4,52 2,13 6,24 12,33 5,9 13,16 21,22 9,6 19,12 32,19 18,9 34,18 49,26 15,8 27,18 37,29 10,12 17,27 22,47 5,19 8,45 8,78l0 141z"/>
 </g>
</svg>
